<svg width="235" height="96" viewBox="0 0 235 96" fill="none" xmlns="http://www.w3.org/2000/svg">
<path d="M44.1113 4.59668C46.2592 2.4488 49.7408 2.4488 51.8887 4.59668L91.4033 44.1113C93.5512 46.2592 93.5512 49.7408 91.4033 51.8887L51.8887 91.4033C49.7408 93.5512 46.2582 93.5512 44.1104 91.4033L4.59668 51.8887C2.4488 49.7408 2.4488 46.2592 4.59668 44.1113L44.1113 4.59668Z" stroke="black"/>
<path d="M55.456 24.92V29.464H62.784V33.688H55.456V38.616H63.744V43H49.984V20.536H63.744V24.92H55.456ZM74.0485 19.32V43H68.5765V19.32H74.0485ZM82.046 23.288C81.086 23.288 80.2967 23.0107 79.678 22.456C79.0807 21.88 78.782 21.176 78.782 20.344C78.782 19.4907 79.0807 18.7867 79.678 18.232C80.2967 17.656 81.086 17.368 82.046 17.368C82.9847 17.368 83.7527 17.656 84.35 18.232C84.9687 18.7867 85.278 19.4907 85.278 20.344C85.278 21.176 84.9687 21.88 84.35 22.456C83.7527 23.0107 82.9847 23.288 82.046 23.288ZM84.766 25.144V43H79.294V25.144H84.766ZM99.9635 38.36V43H97.1795C95.1955 43 93.6488 42.52 92.5395 41.56C91.4302 40.5787 90.8755 38.9893 90.8755 36.792V29.688H88.6995V25.144H90.8755V20.792H96.3475V25.144H99.9315V29.688H96.3475V36.856C96.3475 37.3893 96.4755 37.7733 96.7315 38.008C96.9875 38.2427 97.4142 38.36 98.0115 38.36H99.9635ZM121.123 33.784C121.123 34.296 121.091 34.8293 121.028 35.384H108.643C108.729 36.4933 109.081 37.3467 109.699 37.944C110.339 38.52 111.118 38.808 112.035 38.808C113.401 38.808 114.35 38.232 114.883 37.08H120.708C120.409 38.2533 119.865 39.3093 119.076 40.248C118.308 41.1867 117.337 41.9227 116.163 42.456C114.99 42.9893 113.678 43.256 112.227 43.256C110.478 43.256 108.921 42.8827 107.555 42.136C106.19 41.3893 105.123 40.3227 104.355 38.936C103.587 37.5493 103.203 35.928 103.203 34.072C103.203 32.216 103.577 30.5947 104.323 29.208C105.091 27.8213 106.158 26.7547 107.523 26.008C108.889 25.2613 110.457 24.888 112.227 24.888C113.955 24.888 115.491 25.2507 116.835 25.976C118.179 26.7013 119.225 27.736 119.972 29.08C120.739 30.424 121.123 31.992 121.123 33.784ZM115.523 32.344C115.523 31.4053 115.203 30.6587 114.563 30.104C113.923 29.5493 113.123 29.272 112.163 29.272C111.246 29.272 110.467 29.5387 109.827 30.072C109.209 30.6053 108.825 31.3627 108.675 32.344H115.523ZM75.424 52.536V75H69.952V61.528L64.928 75H60.512L55.456 61.496V75H49.984V52.536H56.448L62.752 68.088L68.992 52.536H75.424ZM92.095 75L87.423 66.52H86.111V75H80.639V52.536H89.823C91.5937 52.536 93.0977 52.8453 94.335 53.464C95.5937 54.0827 96.5323 54.936 97.151 56.024C97.7697 57.0907 98.079 58.2853 98.079 59.608C98.079 61.1013 97.6523 62.4347 96.799 63.608C95.967 64.7813 94.7297 65.6133 93.087 66.104L98.271 75H92.095ZM86.111 62.648H89.503C90.5057 62.648 91.2523 62.4027 91.743 61.912C92.255 61.4213 92.511 60.728 92.511 59.832C92.511 58.9787 92.255 58.3067 91.743 57.816C91.2523 57.3253 90.5057 57.08 89.503 57.08H86.111V62.648ZM101.866 63.736C101.866 61.5173 102.346 59.544 103.306 57.816C104.266 56.0667 105.599 54.712 107.306 53.752C109.034 52.7707 110.986 52.28 113.162 52.28C115.829 52.28 118.111 52.984 120.01 54.392C121.909 55.8 123.178 57.72 123.818 60.152H117.802C117.354 59.2133 116.714 58.4987 115.882 58.008C115.071 57.5173 114.143 57.272 113.098 57.272C111.413 57.272 110.047 57.8587 109.002 59.032C107.957 60.2053 107.434 61.7733 107.434 63.736C107.434 65.6987 107.957 67.2667 109.002 68.44C110.047 69.6133 111.413 70.2 113.098 70.2C114.143 70.2 115.071 69.9547 115.882 69.464C116.714 68.9733 117.354 68.2587 117.802 67.32H123.818C123.178 69.752 121.909 71.672 120.01 73.08C118.111 74.4667 115.829 75.16 113.162 75.16C110.986 75.16 109.034 74.68 107.306 73.72C105.599 72.7387 104.266 71.384 103.306 69.656C102.346 67.928 101.866 65.9547 101.866 63.736ZM139.073 75.224C136.961 75.224 135.02 74.7333 133.249 73.752C131.5 72.7707 130.102 71.4053 129.057 69.656C128.033 67.8853 127.521 65.9013 127.521 63.704C127.521 61.5067 128.033 59.5333 129.057 57.784C130.102 56.0347 131.5 54.6693 133.249 53.688C135.02 52.7067 136.961 52.216 139.073 52.216C141.185 52.216 143.116 52.7067 144.865 53.688C146.636 54.6693 148.022 56.0347 149.025 57.784C150.049 59.5333 150.561 61.5067 150.561 63.704C150.561 65.9013 150.049 67.8853 149.025 69.656C148.001 71.4053 146.614 72.7707 144.865 73.752C143.116 74.7333 141.185 75.224 139.073 75.224ZM139.073 70.232C140.865 70.232 142.294 69.6347 143.361 68.44C144.449 67.2453 144.993 65.6667 144.993 63.704C144.993 61.72 144.449 60.1413 143.361 58.968C142.294 57.7733 140.865 57.176 139.073 57.176C137.26 57.176 135.809 57.7627 134.721 58.936C133.654 60.1093 133.121 61.6987 133.121 63.704C133.121 65.688 133.654 67.2773 134.721 68.472C135.809 69.6453 137.26 70.232 139.073 70.232ZM169.797 59.64C169.392 58.8933 168.805 58.328 168.037 57.944C167.291 57.5387 166.405 57.336 165.381 57.336C163.611 57.336 162.192 57.9227 161.125 59.096C160.059 60.248 159.525 61.7947 159.525 63.736C159.525 65.8053 160.08 67.4267 161.189 68.6C162.32 69.752 163.867 70.328 165.829 70.328C167.173 70.328 168.304 69.9867 169.221 69.304C170.16 68.6213 170.843 67.64 171.269 66.36H164.325V62.328H176.229V67.416C175.824 68.7813 175.131 70.0507 174.149 71.224C173.189 72.3973 171.963 73.3467 170.469 74.072C168.976 74.7973 167.291 75.16 165.413 75.16C163.195 75.16 161.211 74.68 159.461 73.72C157.733 72.7387 156.379 71.384 155.397 69.656C154.437 67.928 153.957 65.9547 153.957 63.736C153.957 61.5173 154.437 59.544 155.397 57.816C156.379 56.0667 157.733 54.712 159.461 53.752C161.189 52.7707 163.163 52.28 165.381 52.28C168.069 52.28 170.331 52.9307 172.165 54.232C174.021 55.5333 175.248 57.336 175.845 59.64H169.797Z" fill="black"/>
</svg>
